<svg width="41" height="39" viewBox="0 0 41 39" fill="none" xmlns="http://www.w3.org/2000/svg">
<path d="M40.2311 21.5228L22.838 38.5853L21.2998 36.1736L37.7464 19.5332V19.4729L25.0269 6.32933L25.9735 3.61621L41.0002 19.3523L40.2311 21.5228Z" fill="white"/>
<path fill-rule="evenodd" clip-rule="evenodd" d="M13.062 27.0118C13.2457 26.3968 13.4906 25.8434 13.7355 25.29C14.7763 23.1377 16.1844 21.2315 17.715 19.4482C19.7353 17.173 22.0006 15.1437 24.572 13.4834C25.674 12.7455 26.8372 12.1306 28.1229 11.7001C28.1841 11.6386 28.3066 11.6386 28.429 11.5771L27.6943 12.4995C26.8984 13.4834 26.0413 14.4673 25.3679 15.5742C25.3066 15.6972 25.2454 15.6972 25.123 15.6972C24.6332 15.8201 24.0822 15.9431 23.5312 15.9431C23.7148 16.1891 24.0209 16.3121 24.2658 16.4351C24.3883 16.4966 24.6332 16.4966 24.6944 16.681C24.6944 16.804 24.5107 16.9885 24.4495 17.1115C24.3271 17.4189 24.0822 17.6034 23.776 17.6649C23.2863 17.7879 22.7965 17.9109 22.2455 17.9109C22.2455 18.0339 22.3067 18.0339 22.3679 18.0954C22.674 18.3413 23.0414 18.5258 23.4087 18.6488C23.5312 18.7103 23.5312 18.7718 23.4699 18.8948C23.3475 19.2022 23.1026 19.3252 22.7965 19.3867C22.0006 19.6327 21.2047 19.8171 20.4088 19.8786H20.3476C20.5312 20.0631 20.7149 20.1861 20.8986 20.3091C21.2659 20.4936 21.6332 20.6165 22.0618 20.7395C22.123 20.7395 22.1843 20.801 22.123 20.8625C21.8169 21.293 21.5108 21.7234 21.0822 22.0309C20.7761 22.3383 20.4088 22.3383 19.9802 22.3383H18.5721C18.2048 22.3383 17.8374 22.3383 17.4701 22.3998C17.164 22.4613 16.9191 22.5843 16.7354 22.8303C16.1232 23.5067 15.7558 24.3676 15.3273 25.167L15.1436 25.536C15.0212 26.0279 14.715 26.2739 14.2865 26.4583C13.9191 26.5198 13.4906 26.7658 13.062 27.0118Z" fill="white"/>
<path opacity="0.98" d="M0.709925 17.1228L18.1031 0L19.6413 2.41166L3.19466 19.1124V19.1727L15.9733 32.256L15.0267 34.9691L0 19.2933L0.709925 17.1228Z" fill="white"/>
</svg>
